# xmcd CD database file generated by Grip 3.3.1
# 
# Track frame offsets:
#       150
#       17731
#       34514
#       51328
#       68290
#       83544
#       96949
#       111699
#       129529
#       143596
#       161097
#       177805
#       193081
#       209912
#       226308
#       243379
#       258195
#       275644
#       290771
#       306515
# 
# Disc length: 4287 seconds
# 
# Revision: 1
# Processed by: cddbd v1.5.2PL0 Copyright (c) Steve Scherf et al.
# Submitted via: Grip 3.3.1
# 
DISCID=2910bd14
DTITLE=Various Artist - Bravo Hits 31 CD 2
DYEAR=1900
DGENRE=Pop
TTITLE0=Bomfunk MC's - Freestyler
TTITLE1=Artful Dodger - Woman Trouble
TTITLE2=Superfunk - The Young MC
TTITLE3=Sonique - It Feels So Good
TTITLE4=Tony Di Bart - I'll Take You There
TTITLE5=Soulsearcher - Do It To Me Again
TTITLE6=Nerio's Dubwork feat. Darryl Pandy - Feel It
TTITLE7=Randy Crawford meets Tiefschwarz - I'll Be Around
TTITLE8=Lenny Fontana and DJ Shorty - Chocolate Sensation
TTITLE9=Phil Fuldner - You Can't Fight What You Feel
TTITLE10=Romina Johnson - My Forbidden Lover
TTITLE11=Giorgio Mororder Project pres. Gloria Gaynor - Last Night
TTITLE12=Moloko - The Time Is Now
TTITLE13=Jennifer Lopez - Let's Get Loud
TTITLE14=Mary Mary - Shackles (Praise You)
TTITLE15=Kelis feat. Terrar - Good Stuff
TTITLE16=Craig David - Fill Me In
TTITLE17=Angie Stone - Life Story
TTITLE18=Tony Braxton - He Wasn't Man Enough
TTITLE19=Whitney Houston and George Michael - If I Told You That
EXTD=
EXTT0=
EXTT1=
EXTT2=
EXTT3=
EXTT4=
EXTT5=
EXTT6=
EXTT7=
EXTT8=
EXTT9=
EXTT10=
EXTT11=
EXTT12=
EXTT13=
EXTT14=
EXTT15=
EXTT16=
EXTT17=
EXTT18=
EXTT19=
PLAYORDER=
